<mxfile host="app.diagrams.net" modified="2022-11-08T00:25:47.531Z" agent="5.0 (Windows)" etag="FonBxVmriZ5MPapkxddc" version="20.5.1" type="github">
  <diagram id="brWQYNjuGpTn7RdkligF" name="Página-1">
    <mxGraphModel dx="1038" dy="575" grid="1" gridSize="10" guides="1" tooltips="1" connect="1" arrows="1" fold="1" page="1" pageScale="1" pageWidth="827" pageHeight="1169" math="0" shadow="0">
      <root>
        <mxCell id="0" />
        <mxCell id="1" parent="0" />
        <mxCell id="SxlA_gWWnseP3w2c1XAP-33" value="" style="edgeStyle=orthogonalEdgeStyle;rounded=0;orthogonalLoop=1;jettySize=auto;html=1;" edge="1" parent="1" source="SxlA_gWWnseP3w2c1XAP-1" target="SxlA_gWWnseP3w2c1XAP-3">
          <mxGeometry relative="1" as="geometry" />
        </mxCell>
        <mxCell id="SxlA_gWWnseP3w2c1XAP-1" value="&lt;div&gt;Inicio&lt;/div&gt;" style="rounded=1;whiteSpace=wrap;html=1;" vertex="1" parent="1">
          <mxGeometry x="320" y="10" width="120" height="60" as="geometry" />
        </mxCell>
        <mxCell id="SxlA_gWWnseP3w2c1XAP-2" value="Pegue uma panela adequada" style="whiteSpace=wrap;html=1;" vertex="1" parent="1">
          <mxGeometry x="320" y="90" width="120" height="60" as="geometry" />
        </mxCell>
        <mxCell id="SxlA_gWWnseP3w2c1XAP-6" value="" style="edgeStyle=orthogonalEdgeStyle;rounded=0;orthogonalLoop=1;jettySize=auto;html=1;entryX=0;entryY=0.5;entryDx=0;entryDy=0;" edge="1" parent="1" source="SxlA_gWWnseP3w2c1XAP-3" target="SxlA_gWWnseP3w2c1XAP-7">
          <mxGeometry relative="1" as="geometry">
            <mxPoint x="520" y="210" as="targetPoint" />
          </mxGeometry>
        </mxCell>
        <mxCell id="SxlA_gWWnseP3w2c1XAP-10" value="" style="edgeStyle=orthogonalEdgeStyle;rounded=0;orthogonalLoop=1;jettySize=auto;html=1;" edge="1" parent="1" source="SxlA_gWWnseP3w2c1XAP-3" target="SxlA_gWWnseP3w2c1XAP-9">
          <mxGeometry relative="1" as="geometry" />
        </mxCell>
        <mxCell id="SxlA_gWWnseP3w2c1XAP-3" value="Para uma pessoa ?" style="rhombus;whiteSpace=wrap;html=1;" vertex="1" parent="1">
          <mxGeometry x="315" y="170" width="130" height="80" as="geometry" />
        </mxCell>
        <mxCell id="SxlA_gWWnseP3w2c1XAP-4" value="&lt;div&gt;Sim&lt;/div&gt;&lt;div&gt;&lt;br&gt;&lt;/div&gt;" style="text;html=1;align=center;verticalAlign=middle;resizable=0;points=[];autosize=1;strokeColor=none;fillColor=none;" vertex="1" parent="1">
          <mxGeometry x="460" y="160" width="40" height="40" as="geometry" />
        </mxCell>
        <mxCell id="SxlA_gWWnseP3w2c1XAP-5" value="Não" style="text;html=1;align=center;verticalAlign=middle;resizable=0;points=[];autosize=1;strokeColor=none;fillColor=none;" vertex="1" parent="1">
          <mxGeometry x="250" y="150" width="40" height="30" as="geometry" />
        </mxCell>
        <mxCell id="SxlA_gWWnseP3w2c1XAP-7" value="Pegue 1 pacote" style="whiteSpace=wrap;html=1;" vertex="1" parent="1">
          <mxGeometry x="530" y="180" width="120" height="60" as="geometry" />
        </mxCell>
        <mxCell id="SxlA_gWWnseP3w2c1XAP-9" value="Pegue a quantidade de pacotes igual ao número de pessoas" style="whiteSpace=wrap;html=1;" vertex="1" parent="1">
          <mxGeometry x="110" y="180" width="120" height="60" as="geometry" />
        </mxCell>
        <mxCell id="SxlA_gWWnseP3w2c1XAP-11" value="Separe a porção de água" style="whiteSpace=wrap;html=1;" vertex="1" parent="1">
          <mxGeometry x="320" y="280" width="120" height="60" as="geometry" />
        </mxCell>
        <mxCell id="SxlA_gWWnseP3w2c1XAP-12" value="" style="endArrow=classic;html=1;rounded=0;exitX=0.5;exitY=1;exitDx=0;exitDy=0;entryX=1;entryY=0.5;entryDx=0;entryDy=0;" edge="1" parent="1" source="SxlA_gWWnseP3w2c1XAP-7" target="SxlA_gWWnseP3w2c1XAP-11">
          <mxGeometry width="50" height="50" relative="1" as="geometry">
            <mxPoint x="390" y="240" as="sourcePoint" />
            <mxPoint x="440" y="190" as="targetPoint" />
          </mxGeometry>
        </mxCell>
        <mxCell id="SxlA_gWWnseP3w2c1XAP-13" value="" style="endArrow=classic;html=1;rounded=0;exitX=0.5;exitY=1;exitDx=0;exitDy=0;entryX=0;entryY=0.5;entryDx=0;entryDy=0;" edge="1" parent="1" source="SxlA_gWWnseP3w2c1XAP-9" target="SxlA_gWWnseP3w2c1XAP-11">
          <mxGeometry width="50" height="50" relative="1" as="geometry">
            <mxPoint x="540" y="250" as="sourcePoint" />
            <mxPoint x="450" y="320" as="targetPoint" />
            <Array as="points" />
          </mxGeometry>
        </mxCell>
        <mxCell id="SxlA_gWWnseP3w2c1XAP-14" value="Ligue o fogão" style="whiteSpace=wrap;html=1;" vertex="1" parent="1">
          <mxGeometry x="320" y="380" width="120" height="60" as="geometry" />
        </mxCell>
        <mxCell id="SxlA_gWWnseP3w2c1XAP-15" value="Coloque a panela no fogão" style="whiteSpace=wrap;html=1;" vertex="1" parent="1">
          <mxGeometry x="320" y="490" width="120" height="60" as="geometry" />
        </mxCell>
        <mxCell id="SxlA_gWWnseP3w2c1XAP-16" value="" style="endArrow=classic;html=1;rounded=0;entryX=0.5;entryY=0;entryDx=0;entryDy=0;exitX=0.5;exitY=1;exitDx=0;exitDy=0;" edge="1" parent="1" source="SxlA_gWWnseP3w2c1XAP-11" target="SxlA_gWWnseP3w2c1XAP-14">
          <mxGeometry width="50" height="50" relative="1" as="geometry">
            <mxPoint x="390" y="330" as="sourcePoint" />
            <mxPoint x="440" y="280" as="targetPoint" />
          </mxGeometry>
        </mxCell>
        <mxCell id="SxlA_gWWnseP3w2c1XAP-20" value="" style="endArrow=classic;html=1;rounded=0;entryX=0.5;entryY=0;entryDx=0;entryDy=0;" edge="1" parent="1" target="SxlA_gWWnseP3w2c1XAP-15">
          <mxGeometry width="50" height="50" relative="1" as="geometry">
            <mxPoint x="380" y="440" as="sourcePoint" />
            <mxPoint x="380" y="483" as="targetPoint" />
          </mxGeometry>
        </mxCell>
        <mxCell id="SxlA_gWWnseP3w2c1XAP-21" value="Coloque a água" style="whiteSpace=wrap;html=1;" vertex="1" parent="1">
          <mxGeometry x="320" y="600" width="120" height="60" as="geometry" />
        </mxCell>
        <mxCell id="SxlA_gWWnseP3w2c1XAP-22" value="" style="endArrow=classic;html=1;rounded=0;exitX=0.5;exitY=1;exitDx=0;exitDy=0;entryX=0.5;entryY=0;entryDx=0;entryDy=0;" edge="1" parent="1" source="SxlA_gWWnseP3w2c1XAP-15" target="SxlA_gWWnseP3w2c1XAP-21">
          <mxGeometry width="50" height="50" relative="1" as="geometry">
            <mxPoint x="382" y="560" as="sourcePoint" />
            <mxPoint x="400" y="590" as="targetPoint" />
          </mxGeometry>
        </mxCell>
        <mxCell id="SxlA_gWWnseP3w2c1XAP-34" value="" style="edgeStyle=orthogonalEdgeStyle;rounded=0;orthogonalLoop=1;jettySize=auto;html=1;" edge="1" parent="1" source="SxlA_gWWnseP3w2c1XAP-23" target="SxlA_gWWnseP3w2c1XAP-25">
          <mxGeometry relative="1" as="geometry" />
        </mxCell>
        <mxCell id="SxlA_gWWnseP3w2c1XAP-23" value="&lt;div&gt;Coloque o macarrão (ões)&lt;/div&gt;" style="whiteSpace=wrap;html=1;" vertex="1" parent="1">
          <mxGeometry x="320" y="710" width="120" height="60" as="geometry" />
        </mxCell>
        <mxCell id="SxlA_gWWnseP3w2c1XAP-24" value="" style="endArrow=classic;html=1;rounded=0;exitX=0.5;exitY=1;exitDx=0;exitDy=0;" edge="1" parent="1" source="SxlA_gWWnseP3w2c1XAP-21">
          <mxGeometry width="50" height="50" relative="1" as="geometry">
            <mxPoint x="379.5" y="660" as="sourcePoint" />
            <mxPoint x="380" y="710" as="targetPoint" />
          </mxGeometry>
        </mxCell>
        <mxCell id="SxlA_gWWnseP3w2c1XAP-35" value="" style="edgeStyle=orthogonalEdgeStyle;rounded=0;orthogonalLoop=1;jettySize=auto;html=1;" edge="1" parent="1" source="SxlA_gWWnseP3w2c1XAP-25" target="SxlA_gWWnseP3w2c1XAP-26">
          <mxGeometry relative="1" as="geometry" />
        </mxCell>
        <mxCell id="SxlA_gWWnseP3w2c1XAP-25" value="&lt;div&gt;Coloque o tempero&lt;br&gt;&lt;/div&gt;" style="whiteSpace=wrap;html=1;" vertex="1" parent="1">
          <mxGeometry x="320" y="800" width="120" height="60" as="geometry" />
        </mxCell>
        <mxCell id="SxlA_gWWnseP3w2c1XAP-36" value="" style="edgeStyle=orthogonalEdgeStyle;rounded=0;orthogonalLoop=1;jettySize=auto;html=1;" edge="1" parent="1" source="SxlA_gWWnseP3w2c1XAP-26" target="SxlA_gWWnseP3w2c1XAP-29">
          <mxGeometry relative="1" as="geometry" />
        </mxCell>
        <mxCell id="SxlA_gWWnseP3w2c1XAP-26" value="&lt;div&gt;Aguarde a água ferver&lt;br&gt;&lt;/div&gt;" style="whiteSpace=wrap;html=1;" vertex="1" parent="1">
          <mxGeometry x="320" y="900" width="120" height="60" as="geometry" />
        </mxCell>
        <mxCell id="SxlA_gWWnseP3w2c1XAP-37" value="" style="edgeStyle=orthogonalEdgeStyle;rounded=0;orthogonalLoop=1;jettySize=auto;html=1;" edge="1" parent="1" source="SxlA_gWWnseP3w2c1XAP-29" target="SxlA_gWWnseP3w2c1XAP-30">
          <mxGeometry relative="1" as="geometry" />
        </mxCell>
        <mxCell id="SxlA_gWWnseP3w2c1XAP-29" value="Desligue o fogão" style="whiteSpace=wrap;html=1;" vertex="1" parent="1">
          <mxGeometry x="320" y="990" width="120" height="60" as="geometry" />
        </mxCell>
        <mxCell id="SxlA_gWWnseP3w2c1XAP-30" value="Sirva" style="whiteSpace=wrap;html=1;" vertex="1" parent="1">
          <mxGeometry x="320" y="1100" width="120" height="60" as="geometry" />
        </mxCell>
        <mxCell id="SxlA_gWWnseP3w2c1XAP-31" value="" style="endArrow=classic;html=1;rounded=0;exitX=0.5;exitY=1;exitDx=0;exitDy=0;entryX=0.5;entryY=0;entryDx=0;entryDy=0;" edge="1" parent="1" source="SxlA_gWWnseP3w2c1XAP-2" target="SxlA_gWWnseP3w2c1XAP-3">
          <mxGeometry width="50" height="50" relative="1" as="geometry">
            <mxPoint x="390" y="240" as="sourcePoint" />
            <mxPoint x="440" y="190" as="targetPoint" />
          </mxGeometry>
        </mxCell>
      </root>
    </mxGraphModel>
  </diagram>
</mxfile>
